<svg width="12" height="12" viewBox="0 0 12 12" fill="none" xmlns="http://www.w3.org/2000/svg">
<g id="back_arrow">
<path id="Vector" d="M1.49514 3.69073C1.43694 3.74879 1.39076 3.81776 1.35925 3.89369C1.32774 3.96962 1.31152 4.05102 1.31152 4.13323C1.31152 4.21544 1.32774 4.29684 1.35925 4.37277C1.39076 4.4487 1.43694 4.51767 1.49514 4.57573L5.65014 8.73073C5.6964 8.77708 5.75134 8.81386 5.81183 8.83895C5.87231 8.86404 5.93716 8.87695 6.00264 8.87695C6.06812 8.87695 6.13297 8.86404 6.19345 8.83895C6.25394 8.81386 6.30888 8.77708 6.35514 8.73073L10.5101 4.57573C10.7551 4.33073 10.7551 3.93573 10.5101 3.69073C10.2651 3.44573 9.87014 3.44573 9.62514 3.69073L6.00014 7.31073L2.37514 3.68573C2.13514 3.44573 1.73514 3.44573 1.49514 3.69073Z" fill="#1E232C" stroke="#1E232C" stroke-width="0.2"/>
</g>
</svg>
