<svg width="206" height="238" viewBox="0 0 206 238" fill="none" xmlns="http://www.w3.org/2000/svg">
<g id="freepik--Character--inject-2">
<g id="Group">
<path id="Vector" d="M108.126 129.528C108.158 100.27 81.661 46.0976 117.882 13.0801L167.554 45.4591C167.765 55.2449 170.517 69.0443 172.533 76.8277C174.548 84.6111 183.506 89.2906 189.765 94.3375C193.414 97.2801 198.102 98.9151 201.221 102.414C204.628 106.235 205.592 111.794 204.72 116.838C203.848 121.882 201.34 126.496 198.487 130.746C190.117 143.21 178.174 153.507 164.048 158.593C149.922 163.678 133.602 163.214 120.402 156.062C117.283 154.372 114.297 152.278 112.21 149.409C108.157 143.841 108.119 136.415 108.126 129.528Z" fill="#263238"/>
<g id="Group_2">
<path id="Vector_2" d="M105.782 111.852C109.749 111.295 113.92 110.787 117.944 110.418C130.098 109.312 141.431 109.754 155.249 110.418C158.805 110.631 162.28 110.91 165.558 111.238C166.288 111.311 167.014 111.423 167.733 111.573C178.954 113.921 186.148 124.921 183.801 136.143C179.136 158.577 166.224 173.933 164.825 188.623C162.975 208.051 173.683 224.584 175.605 237.763L79.3796 236.948C87.2699 215.344 87.6191 212.122 85.767 195.806C70.024 184.98 78.2596 157.704 83.5455 145.899C92.7593 122.289 91.4046 113.901 105.782 111.852Z" fill="#263238"/>
<path id="Vector_3" opacity="0.8" d="M105.782 111.852C109.749 111.295 113.92 110.787 117.944 110.418C130.098 109.312 141.431 109.754 155.249 110.418C158.805 110.631 162.28 110.91 165.558 111.238C166.288 111.311 167.014 111.423 167.733 111.573C178.954 113.921 186.148 124.921 183.801 136.143C179.136 158.577 166.224 173.933 164.825 188.623C162.975 208.051 173.683 224.584 175.605 237.763L79.3796 236.948C87.2699 215.344 87.6191 212.122 85.767 195.806C70.024 184.98 78.2596 157.704 83.5455 145.899C92.7593 122.289 91.4046 113.901 105.782 111.852Z" fill="white"/>
<path id="Vector_4" opacity="0.3" d="M171.448 223.209C171.448 223.209 170.323 225.674 159.479 223.209C148.634 220.744 105.175 199.217 105.175 199.217C105.175 199.217 98.8511 200.026 94.6089 197.437C90.3667 194.847 85.8761 178.002 85.8761 178.002L130.431 194.434L170.161 218.316L171.448 223.209Z" fill="#1F263E"/>
<path id="Vector_5" opacity="0.3" d="M130.172 227.132L89.2634 219.604C89.2634 219.604 109.704 230.619 130.172 227.132Z" fill="#1F263E"/>
</g>
<g id="Group_3">
<path id="Vector_6" d="M81.7256 124.728L49.3515 156.579L43.3863 109.439L27.3893 110.659C27.3893 110.659 24.3919 161.685 31.8462 183.796C33.5721 188.915 38.6084 191.434 43.5423 190.556C60.0516 187.619 78.5278 164.807 78.5278 164.807L81.7256 124.728Z" fill="#FDAD6D"/>
<path id="Vector_7" d="M100.708 113.063C100.258 113.223 87.7994 116.295 81.8826 122.634C72.5962 132.584 62.4579 142.534 62.4579 142.534L83.083 164.91L101.633 112.77" fill="#1F263E"/>
<path id="Vector_8" opacity="0.3" d="M49.6783 156.58C49.6783 156.58 51.162 166.434 49.0656 169.011C49.0656 169.011 55.0989 164.35 51.7367 154.555L49.6783 156.58Z" fill="#1F263E"/>
<path id="Vector_9" d="M61.2615 94.7419L50.9432 93.8019C48.848 93.6066 47.0374 92.2575 46.2508 90.3058C45.8523 89.3261 44.914 88.6731 43.8568 88.6398C38.0549 88.45 24.1706 88.0053 14.7802 87.8634C2.65425 87.6858 0.742981 85.5671 0.924603 83.6071C1.10615 81.647 3.36362 79.8961 15.3201 81.9319C24.5844 83.4875 38.3177 85.5571 44.0583 86.4172C45.1039 86.5757 46.1447 86.1035 46.7141 85.2123C47.8409 83.4355 49.8654 82.4367 51.961 82.6237L62.2793 83.5637C62.714 83.6027 63.0347 83.9867 62.9958 84.4214C62.9568 84.856 62.5728 85.1768 62.1381 85.1378L53.0587 84.3082C52.9584 84.2996 52.8574 84.3083 52.76 84.334C52.2915 84.4574 52.0119 84.9373 52.1353 85.4058L52.5376 86.94C52.6309 87.2966 52.9371 87.5569 53.3042 87.5914L62.6315 88.4402C62.6759 88.4407 62.7202 88.4448 62.764 88.4527C63.193 88.5302 63.4781 88.9409 63.4006 89.37C63.3232 89.7991 62.9124 90.0841 62.4834 90.0066L53.1633 89.1582C52.7968 89.1271 52.4491 89.3261 52.2905 89.658L51.6145 91.0894C51.5725 91.1804 51.5463 91.278 51.5371 91.3778C51.493 91.8603 51.8484 92.2872 52.3309 92.3313L61.4103 93.1609C61.8309 93.2159 62.1347 93.5907 62.1014 94.0136C62.0649 94.4439 61.6926 94.7668 61.2615 94.7419Z" fill="#263238"/>
<path id="Vector_10" opacity="0.8" d="M61.2615 94.7419L50.9432 93.8019C48.848 93.6066 47.0374 92.2575 46.2508 90.3058C45.8523 89.3261 44.914 88.6731 43.8568 88.6398C38.0549 88.45 24.1706 88.0053 14.7802 87.8634C2.65425 87.6858 0.742981 85.5671 0.924603 83.6071C1.10615 81.647 3.36362 79.8961 15.3201 81.9319C24.5844 83.4875 38.3177 85.5571 44.0583 86.4172C45.1039 86.5757 46.1447 86.1035 46.7141 85.2123C47.8409 83.4355 49.8654 82.4367 51.961 82.6237L62.2793 83.5637C62.714 83.6027 63.0347 83.9867 62.9958 84.4214C62.9568 84.856 62.5728 85.1768 62.1381 85.1378L53.0587 84.3082C52.9584 84.2996 52.8574 84.3083 52.76 84.334C52.2915 84.4574 52.0119 84.9373 52.1353 85.4058L52.5376 86.94C52.6309 87.2966 52.9371 87.5569 53.3042 87.5914L62.6315 88.4402C62.6759 88.4407 62.7202 88.4448 62.764 88.4527C63.193 88.5302 63.4781 88.9409 63.4006 89.37C63.3232 89.7991 62.9124 90.0841 62.4834 90.0066L53.1633 89.1582C52.7968 89.1271 52.4491 89.3261 52.2905 89.658L51.6145 91.0894C51.5725 91.1804 51.5463 91.278 51.5371 91.3778C51.493 91.8603 51.8484 92.2872 52.3309 92.3313L61.4103 93.1609C61.8309 93.2159 62.1347 93.5907 62.1014 94.0136C62.0649 94.4439 61.6926 94.7668 61.2615 94.7419Z" fill="white"/>
<path id="Vector_11" d="M43.3629 112.107C43.1623 112.207 44.9676 110.502 42.7612 107.694C40.5547 104.886 34.7377 98.1659 34.7377 98.1659C34.7377 98.1659 37.9471 95.8591 36.3424 92.9506C34.7377 90.0421 34.0356 90.5435 34.0356 90.5435C34.0356 90.5435 34.4368 86.0303 30.2245 84.8268C26.0121 83.6233 19.493 89.5406 19.493 89.5406L19.9945 84.6653L24.1066 83.0215C24.1066 83.0215 27.316 83.3224 27.316 80.6145C27.316 77.9066 24.7083 77.8062 22.4016 78.2074C20.0948 78.6086 15.0801 79.6115 14.3781 80.7148C13.676 81.818 9.36333 95.6585 11.2689 98.3664C13.1745 101.074 29.3346 113.11 29.3346 113.11L43.3629 112.107Z" fill="#FDAD6D"/>
<path id="Vector_12" opacity="0.3" d="M27.7103 111.891L34.1221 113.11L27.5691 113.612L27.7103 111.891Z" fill="#1F263E"/>
<g id="Group_4">
<path id="Vector_13" d="M56.7911 86.9955C56.8858 86.2822 57.3269 84.9235 57.7265 84.3729C58.1261 83.8223 59.2598 83.1474 59.9169 82.8337C60.5267 82.5377 61.7877 82.1055 62.5336 82.0996H63.7176C64.4636 82.0996 65.9584 82.4963 66.728 82.7745C67.5568 83.0705 69.2352 83.8312 69.9515 84.4025C70.6679 84.9738 71.544 86.2703 72.0473 86.9926C72.5505 87.7148 73.4385 89.035 73.6871 89.7928C73.9407 90.7073 74.0161 91.6619 73.9091 92.6049C73.7671 93.3478 73.3911 94.6414 72.9737 95.2275C72.4174 95.9086 71.7388 96.4798 70.9728 96.9117C70.0518 97.3242 69.0663 97.5736 68.0601 97.6488H66.876C66.0946 97.6488 64.508 97.2669 63.7176 96.9769C62.6987 96.6034 61.7294 96.1064 60.8316 95.4968C59.9531 94.7133 59.1521 93.8469 58.4398 92.9097C57.7902 92.0016 57.2748 91.0048 56.9095 89.9497C56.7124 88.9776 56.6724 87.9803 56.7911 86.9955Z" fill="#1F263E"/>
<path id="Vector_14" d="M70.1855 93.0275C70.1855 93.0275 67.3764 91.0887 67.1218 90.174C66.8258 89.1498 68.7499 86.918 68.7499 86.918C69.102 87.3204 69.4274 87.7456 69.7237 88.1908C70.0944 88.6921 70.41 89.2321 70.665 89.8011C70.8123 90.3274 70.8566 90.8772 70.7952 91.4202C70.7016 91.9501 70.5194 92.4604 70.2565 92.9298C70.2349 92.9639 70.2112 92.9965 70.1855 93.0275Z" fill="#1F263E"/>
<path id="Vector_15" d="M65.6861 89.153C64.6381 89.153 61.6899 86.5511 61.6899 86.5511C61.7181 86.4997 61.7498 86.4502 61.7847 86.4031C62.1431 86.0277 62.5714 85.726 63.0457 85.5151C63.5204 85.2901 64.0298 85.147 64.5523 85.0918C65.1442 85.1453 65.7265 85.2766 66.284 85.4825C66.9382 85.718 67.5614 86.0321 68.1399 86.4179L68.2109 86.48C68.2109 86.48 66.7368 89.1412 65.6861 89.153Z" fill="#1F263E"/>
<path id="Vector_16" d="M66.2515 91.1816C67.1603 91.1816 69.7385 93.3869 69.7385 93.3869C69.4748 93.6507 69.176 93.8768 68.8505 94.0588C68.3208 94.2965 67.754 94.4407 67.1751 94.4851C66.5542 94.4345 65.9423 94.3041 65.3547 94.0973C64.8893 93.9205 64.4397 93.7046 64.0108 93.452C64.0108 93.452 65.3428 91.1934 66.2515 91.1816Z" fill="#1F263E"/>
<path id="Vector_17" d="M61.0329 88.2087C61.1036 87.7931 61.227 87.3884 61.4 87.0039C61.4 87.0039 64.5287 89.1766 64.8248 90.1978C65.0822 91.1125 63.3654 93.1046 63.3654 93.1046C62.8589 92.6579 62.3979 92.1621 61.989 91.6246C61.6125 91.1051 61.3134 90.5338 61.101 89.9285C60.987 89.3624 60.964 88.7819 61.0329 88.2087Z" fill="#1F263E"/>
<g id="Group_5" opacity="0.3">
<path id="Vector_18" d="M70.1855 93.0275C70.1855 93.0275 67.3764 91.0887 67.1218 90.174C66.8258 89.1498 68.7499 86.918 68.7499 86.918C69.102 87.3204 69.4274 87.7456 69.7237 88.1908C70.0944 88.6921 70.41 89.2321 70.665 89.8011C70.8123 90.3274 70.8566 90.8772 70.7952 91.4202C70.7016 91.9501 70.5194 92.4604 70.2565 92.9298C70.2349 92.9639 70.2112 92.9965 70.1855 93.0275Z" fill="white"/>
<path id="Vector_19" d="M65.6863 89.153C64.6384 89.153 61.6902 86.5511 61.6902 86.5511C61.7184 86.4997 61.75 86.4502 61.7849 86.4031C62.1433 86.0277 62.5717 85.726 63.0459 85.5151C63.5207 85.2901 64.0301 85.147 64.5525 85.0918C65.1444 85.1453 65.7267 85.2766 66.2842 85.4825C66.9384 85.718 67.5617 86.0321 68.1402 86.4179L68.2112 86.48C68.2112 86.48 66.7371 89.1412 65.6863 89.153Z" fill="white"/>
<path id="Vector_20" d="M66.2515 91.1797C67.1603 91.1797 69.7385 93.3849 69.7385 93.3849C69.4748 93.6487 69.176 93.8748 68.8505 94.0568C68.3208 94.2945 67.754 94.4387 67.1751 94.4831C66.5542 94.4325 65.9423 94.3022 65.3547 94.0954C64.8893 93.9186 64.4397 93.7027 64.0108 93.4501C64.0108 93.4501 65.3428 91.1915 66.2515 91.1797Z" fill="white"/>
<path id="Vector_21" d="M61.0329 88.2087C61.1036 87.7931 61.227 87.3884 61.4 87.0039C61.4 87.0039 64.5287 89.1766 64.8248 90.1978C65.0822 91.1125 63.3654 93.1046 63.3654 93.1046C62.8589 92.6579 62.3979 92.1621 61.989 91.6246C61.6125 91.1051 61.3134 90.5338 61.101 89.9285C60.987 89.3624 60.964 88.7819 61.0329 88.2087Z" fill="white"/>
</g>
<g id="Group_6" opacity="0.5">
<path id="Vector_22" d="M69.6377 90.5216C69.9958 90.5956 70.1349 90.4624 70.1261 90.2551C70.1172 90.048 69.9633 89.8555 69.6051 89.7786C69.2469 89.7016 68.9657 89.8111 68.9746 90.0154C68.9835 90.2196 69.2647 90.4476 69.6377 90.5216Z" fill="white"/>
<path id="Vector_23" d="M69.3712 91.814C69.7028 91.9679 69.8774 91.8851 69.9247 91.7074C69.9721 91.5299 69.8715 91.3256 69.5399 91.1717C69.2084 91.0177 68.9006 91.0385 68.8532 91.2161C68.8058 91.3937 69.0367 91.6512 69.3712 91.814Z" fill="white"/>
<path id="Vector_24" d="M69.1788 88.901C69.4274 88.827 69.4599 88.6671 69.3711 88.5043C69.2771 88.3178 69.0567 88.2332 68.862 88.3089C68.6104 88.38 68.4802 88.5724 68.566 88.7352C68.7131 88.9169 68.9602 88.9837 69.1788 88.901Z" fill="white"/>
<path id="Vector_25" d="M64.197 87.0569C63.9987 86.8142 63.8152 86.7787 63.6849 86.8586C63.5547 86.9386 63.534 87.1013 63.7293 87.347C63.9247 87.5927 64.1911 87.723 64.3214 87.643C64.4516 87.5631 64.3924 87.3026 64.197 87.0569Z" fill="white"/>
<path id="Vector_26" d="M66.6183 87.2888C66.6664 87.0867 66.5539 86.8809 66.3578 86.8122C66.1832 86.7442 66.0263 86.7974 65.9849 87.052C65.9267 87.282 66.0266 87.5228 66.2306 87.644C66.4052 87.6973 66.5769 87.5434 66.6183 87.2888Z" fill="white"/>
<path id="Vector_27" d="M65.7126 88.1405C65.612 87.8444 65.4166 87.7083 65.2301 87.7172C65.0436 87.7261 64.9341 87.8623 65.0288 88.1731C65.1235 88.4838 65.3604 88.7266 65.5468 88.7177C65.7333 88.7088 65.8014 88.4513 65.7126 88.1405Z" fill="white"/>
<path id="Vector_28" d="M68.2287 90.7644C68.5247 90.8295 68.6372 90.723 68.6342 90.5573C68.6312 90.3915 68.5099 90.2287 68.2168 90.1606C67.9238 90.0925 67.69 90.1754 67.6958 90.3412C67.7017 90.5069 67.9386 90.6904 68.2287 90.7644Z" fill="white"/>
<path id="Vector_29" d="M66.9796 93.6905C67.1188 93.9628 67.3053 94.0398 67.4621 94.0013C67.619 93.9628 67.6871 93.8178 67.5509 93.5455C67.4148 93.2731 67.172 93.0837 67.0152 93.1221C66.8583 93.1607 66.8435 93.427 66.9796 93.6905Z" fill="white"/>
<path id="Vector_30" d="M68.1961 93.303C68.4003 93.5458 68.5868 93.5813 68.7141 93.4955C68.8414 93.4096 68.865 93.2468 68.6608 93.0011C68.4566 92.7554 68.1902 92.6252 68.0688 92.7051C67.9474 92.7851 67.9948 93.0573 68.1961 93.303Z" fill="white"/>
<path id="Vector_31" d="M66.7575 92.4621C66.9765 92.696 67.1601 92.7167 67.2785 92.622C67.3969 92.5272 67.4057 92.3556 67.1897 92.1218C66.9736 91.8879 66.6983 91.7724 66.5799 91.8671C66.4615 91.9619 66.5414 92.2431 66.7575 92.4621Z" fill="white"/>
<path id="Vector_32" d="M62.3323 88.6706C62.0363 88.5759 61.912 88.6706 61.8942 88.8275C61.8765 88.9844 61.986 89.159 62.2761 89.2537C62.5661 89.3485 62.8148 89.2981 62.8325 89.1354C62.8503 88.9726 62.6253 88.7653 62.3323 88.6706Z" fill="white"/>
<path id="Vector_33" d="M63.6789 89.8984C63.3977 89.8984 63.3178 90.0346 63.3622 90.1945C63.4274 90.4009 63.6296 90.5324 63.8447 90.5082C64.1259 90.5082 64.3183 90.3721 64.2739 90.2123C64.2295 90.0524 63.9631 89.9014 63.6789 89.8984Z" fill="white"/>
<path id="Vector_34" d="M62.2078 90.2109C61.9119 90.2109 61.8467 90.3471 61.8911 90.507C61.9551 90.7129 62.1562 90.8446 62.3707 90.8207C62.6667 90.8207 62.8472 90.6816 62.7999 90.5247C62.7525 90.3679 62.489 90.2109 62.2078 90.2109Z" fill="white"/>
<path id="Vector_35" d="M62.8089 91.2954C62.6679 91.3781 62.6207 91.5596 62.7034 91.7005C62.7176 91.7248 62.7352 91.7468 62.7556 91.7661C62.8764 91.9247 63.103 91.9555 63.2617 91.8348L63.2736 91.8253C63.4524 91.7331 63.5225 91.5136 63.4304 91.3348C63.4234 91.3212 63.4155 91.3081 63.4069 91.2954C63.2344 91.1489 62.9813 91.1489 62.8089 91.2954Z" fill="white"/>
<path id="Vector_36" d="M65.2657 92.4454C65.1687 92.6215 65.2327 92.843 65.4089 92.94L65.4196 92.9457C65.5519 93.0416 65.7371 93.0121 65.833 92.8797C65.848 92.859 65.8603 92.8364 65.8695 92.8125C65.9805 92.6145 65.9345 92.3656 65.76 92.2204C65.5942 92.1169 65.3722 92.2175 65.2657 92.4454Z" fill="white"/>
<path id="Vector_37" d="M64.8986 86.2436C64.8834 86.0285 64.7187 85.8538 64.5049 85.8262C64.3302 85.8262 64.2089 85.918 64.2621 86.1962C64.3154 86.4745 64.5019 86.7142 64.6795 86.726C64.8571 86.7379 64.9518 86.5247 64.8986 86.2436Z" fill="white"/>
</g>
</g>
</g>
<path id="Vector_38" d="M124.531 87.059C126.933 96.6992 127.296 106.931 113.479 110.229C113.479 110.229 102.866 123.624 111.576 139.784C129.402 120.089 151.972 110.229 151.972 110.229C143.313 101.968 145.731 79.2707 148.158 66.8906L124.531 87.059Z" fill="#FDAD6D"/>
<g id="Group_7">
<path id="Vector_39" d="M128.557 9.75089C107.576 14.3934 99.5006 44.1344 100.549 63.1866C101.691 84.3528 124.878 94.6357 142.831 81.6045C154.771 72.9198 156.395 64.3112 161.223 44.1682C166.061 24.0252 149.198 5.17606 128.557 9.75089Z" fill="#FDAD6D"/>
<path id="Vector_40" d="M163.911 64.3043C145.806 66.7651 138.823 24.9049 159.87 17.2012C181.392 20.9558 182.016 61.8435 163.911 64.3043Z" fill="#263238"/>
<path id="Vector_41" d="M132.176 60.5415C132.368 60.347 132.368 60.034 132.176 59.8396C131.981 59.6472 131.668 59.6472 131.474 59.8396C128.337 62.7067 124.023 63.9093 119.855 63.0784L119.84 63.0758C119.577 63.0338 119.33 63.213 119.288 63.4758L119.287 63.4834C119.24 63.7502 119.419 64.0043 119.686 64.0508C120.618 64.2143 121.563 64.2992 122.51 64.3045C126.098 64.3529 129.565 63.0033 132.176 60.5415Z" fill="#263238"/>
<path id="Vector_42" d="M162.314 51.1882C158.137 48.6767 152.344 53.5221 149.681 57.6573C146.712 62.2491 147.279 67.9571 152.217 68.2193C156.167 68.2912 159.957 66.6655 162.627 63.7543C166.204 60.0166 166.492 53.6997 162.314 51.1882Z" fill="#FDAD6D"/>
<path id="Vector_43" d="M118.29 12.6272C120.48 11.1827 122.97 9.82036 125.575 10.1251L153.805 25.0853C149.074 28.5152 146.762 34.9635 148.237 40.6181C143.459 39.955 138.681 39.2917 133.903 38.6286C132.417 38.4224 130.713 38.0702 130.014 36.7438C129.57 35.9017 129.669 34.8858 129.821 33.946C130.306 30.9538 131.214 28.0306 132.511 25.2906C129.663 26.9904 127.488 29.786 126.542 32.9645C125.919 29.3586 126.851 25.5106 129.056 22.59C126.527 22.2532 124.027 23.7093 122.427 25.6965C120.826 27.6837 120.121 31.6729 119.28 34.0814C113.65 31.9568 107.57 29.0605 101.58 28.4979C106.159 22.2801 111.845 16.8799 118.29 12.6272Z" fill="#263238"/>
<path id="Vector_44" d="M169.571 62.4445C169.571 62.4445 165.379 46.7873 156.624 36.6485C151.583 30.8112 141.417 21.4291 133.991 19.3468C126.565 17.2644 123.049 16.6996 115.44 15.4353C114.42 15.2658 113.39 13.5876 114.152 11.6401C114.698 10.2447 117.348 9.76848 118.809 9.43861C121.833 8.7561 124 9.23033 126.33 7.18533C134.955 -0.383228 151.65 -0.727203 157.199 0.757513C169.33 4.00356 175.724 8.17369 184.69 16.7277C186.37 18.3302 187.944 20.7031 189.114 22.7081C190.284 24.713 191.438 27.5657 189.999 29.3879C188.59 31.1731 179.865 31.1731 179.865 31.1731C182.22 35.4404 183.007 40.8054 181.641 46.194C180.443 50.9184 179.411 53.7054 174.87 55.4742C174.87 55.4742 178.84 63.3791 169.571 62.4445Z" fill="#1F263E"/>
<g id="Group_8">
<g id="Group_9">
<path id="Vector_45" d="M134.422 46.0285C134.162 47.9632 132.842 49.4679 131.475 49.3892C130.108 49.3109 129.211 47.6792 129.471 45.7449C129.732 43.8104 131.051 42.3055 132.418 42.3838C133.785 42.4621 134.682 44.0938 134.422 46.0285Z" fill="#263238"/>
<path id="Vector_46" d="M114.395 44.1044C114.142 45.9506 112.849 47.385 111.506 47.3084C110.164 47.2313 109.28 45.6725 109.533 43.8261C109.785 41.9799 111.079 40.5452 112.421 40.6221C113.764 40.6987 114.648 42.2579 114.395 44.1044Z" fill="#263238"/>
<path id="Vector_47" d="M137.709 39.1196C137.441 39.1513 137.169 39.0837 136.961 38.9102C133.728 36.1971 130.074 37.2239 130.032 37.2358C129.491 37.3893 128.944 37.116 128.822 36.6098C128.701 36.1039 129.046 35.5654 129.595 35.4041C129.786 35.3494 134.372 34.0564 138.384 37.4249C138.783 37.7604 138.789 38.3658 138.397 38.7762C138.208 38.9733 137.96 39.09 137.709 39.1196Z" fill="#263238"/>
<path id="Vector_48" d="M108.305 34.2017C108.1 34.085 107.944 33.8966 107.883 33.6612C107.756 33.1747 108.079 32.6726 108.602 32.5392C113.855 31.2052 117.174 33.964 117.314 34.0843C117.706 34.4192 117.725 34.9952 117.355 35.3722C116.986 35.7489 116.369 35.7831 115.975 35.4514C115.847 35.3415 113.239 33.2382 109.062 34.3001C108.792 34.3684 108.521 34.3255 108.305 34.2017Z" fill="#263238"/>
<path id="Vector_49" d="M119.908 43.1738C119.908 43.1738 115.592 51.5835 111.467 55.5418C113.747 58.12 118.25 57.2119 118.25 57.2119L119.908 43.1738Z" fill="#FF8431"/>
</g>
<path id="Vector_50" d="M128.641 41.1641L132.986 42.5573C130.803 44.6558 128.641 41.1641 128.641 41.1641Z" fill="#263238"/>
<path id="Vector_51" d="M108.869 39.4199L113.215 40.8131C111.031 42.9117 108.869 39.4199 108.869 39.4199Z" fill="#263238"/>
</g>
<path id="Vector_52" opacity="0.5" d="M153.04 61.4374C153.171 61.4374 153.285 61.3386 153.3 61.205C153.523 59.2276 154.714 57.3503 156.409 56.3057C158.103 55.2611 160.315 55.0402 162.182 55.7287C162.318 55.7795 162.469 55.7093 162.519 55.5736C162.569 55.438 162.499 55.2873 162.364 55.2372C160.349 54.4949 157.962 54.7328 156.134 55.8599C154.306 56.9873 153.02 59.0128 152.78 61.1464C152.763 61.2899 152.866 61.4197 153.01 61.4357C153.02 61.4368 153.03 61.4374 153.04 61.4374Z" fill="#1F263E"/>
<path id="Vector_53" d="M173.358 52.5636C172.345 48.98 171.983 47.66 170.648 45.4693C164.544 35.4568 158.032 25.0345 147.883 19.1591C143.641 16.7029 139.022 14.6047 134.363 13.0794C130.494 11.8127 126.978 11.097 123.109 9.83035C133.056 9.50271 136.561 10.7197 147.721 16.3802C155.564 20.359 171.838 33.4458 173.358 52.5636Z" fill="#1F263E"/>
</g>
<g id="Group_10">
<path id="Vector_54" d="M158.189 119.036C169.256 109.343 182.171 120.035 184.849 134.151C189.621 159.301 187.613 211.425 180.757 218.069C177.844 220.891 171.89 221.052 166.559 219.791C142.435 214.082 104.368 194.906 104.368 194.906L116.005 182.928L160.451 191.988C160.451 191.988 155.305 140.051 155.305 135.143C155.305 134.366 155.582 121.32 158.189 119.036Z" fill="#FDAD6D"/>
<path id="Vector_55" d="M191.749 175.218H158.314C158.314 175.218 151.076 126.562 157.028 115.395C159.65 110.476 167.697 109.928 174.06 111.68C192.229 116.681 191.749 175.218 191.749 175.218Z" fill="#1F263E"/>
<g id="Group_11">
<path id="Vector_56" opacity="0.3" d="M124.813 184.848C124.813 184.848 116.698 192.037 108.343 194.433C108.343 194.433 118.711 194.866 128.051 185.538L124.813 184.848Z" fill="#1F263E"/>
<g id="Group_12">
<path id="Vector_57" d="M107.149 161.795C89.4846 161.795 75.1648 159.614 75.1648 156.925C75.1648 154.235 89.4846 152.055 107.149 152.055C124.813 152.055 139.133 154.235 139.133 156.925C139.133 159.614 124.813 161.795 107.149 161.795Z" fill="#263238"/>
<g id="Group_13">
<path id="Vector_58" d="M86.1219 164.13C88.4749 161.947 95.4796 165.491 95.0579 161.043C94.6363 156.595 99.356 159.819 100.009 155.466C100.662 151.114 94.3303 152.379 97.0097 149.006C99.6892 145.632 97.5538 141.226 93.4462 141.178C89.3386 141.13 90.5015 146.408 86.9651 144.014C83.0752 141.382 79.8652 143.708 79.8516 147.217C79.838 150.726 76.5941 148.747 75.2816 152.426C73.5541 157.268 81.4769 157.792 79.906 160.669C78.335 163.546 82.2387 167.721 86.1219 164.13Z" fill="#1F263E"/>
<path id="Vector_59" d="M86.5435 162.368C89.1753 159.015 94.3642 163.98 94.0242 160.219C93.6842 156.458 98.7847 158.723 98.3291 155.023C97.8734 151.324 92.3104 151.181 95.3843 149.195C98.4583 147.209 96.6765 142.578 93.1877 142.537C89.6989 142.497 90.2702 147.345 87.2711 145.319C83.9796 143.088 81.2593 145.06 81.2457 148.039C81.2321 151.018 78.1922 149.399 76.5601 152.31C73.7309 157.302 83.2519 156.506 80.7969 159.92C79.1579 162.164 83.1499 166.687 86.5435 162.368Z" fill="#1F263E"/>
<path id="Vector_60" opacity="0.4" d="M86.7949 161.558C88.944 158.627 93.5073 162.714 93.0924 159.517C92.6775 156.321 97.0981 158.11 96.6152 154.968C96.1323 151.826 91.3855 151.86 93.9425 150.085C96.4996 148.31 94.8606 144.406 91.9023 144.468C88.944 144.529 89.5561 148.65 86.9378 147.004C84.0679 145.195 81.8033 146.957 81.8781 149.486C81.9528 152.016 79.3142 150.758 78.0017 153.254C75.7302 157.593 83.8231 156.654 81.8236 159.626C80.4907 161.592 84.0203 165.339 86.7949 161.558Z" fill="white"/>
</g>
<path id="Vector_61" opacity="0.4" d="M86.1219 164.13C88.4749 161.947 95.4796 165.491 95.0579 161.043C94.6363 156.595 99.356 159.819 100.009 155.466C100.662 151.114 94.3303 152.379 97.0097 149.006C99.6892 145.632 97.5538 141.226 93.4462 141.178C89.3386 141.13 90.5015 146.408 86.9651 144.014C83.0752 141.382 79.8652 143.708 79.8516 147.217C79.838 150.726 76.5941 148.747 75.2816 152.426C73.5541 157.268 81.4769 157.792 79.906 160.669C78.335 163.546 82.2387 167.721 86.1219 164.13Z" fill="white"/>
<g id="Group_14">
<path id="Vector_62" d="M117.9 157.004C118.649 153.883 126.443 152.95 123.627 149.482C120.81 146.013 126.526 146.08 124.656 142.096C122.787 138.111 118.219 142.673 118.579 138.381C118.94 134.088 114.72 131.604 111.275 133.841C107.829 136.078 111.722 139.826 107.452 139.793C102.755 139.759 101.373 143.474 103.307 146.402C105.24 149.331 101.443 149.481 102.39 153.271C103.636 158.259 110.521 154.303 110.808 157.568C111.095 160.834 116.658 162.146 117.9 157.004Z" fill="#1F263E"/>
<path id="Vector_63" opacity="0.4" d="M117.9 157.004C118.649 153.883 126.443 152.95 123.627 149.482C120.81 146.013 126.526 146.08 124.656 142.096C122.787 138.111 118.219 142.673 118.579 138.381C118.94 134.088 114.72 131.604 111.275 133.841C107.829 136.078 111.722 139.826 107.452 139.793C102.755 139.759 101.373 143.474 103.307 146.402C105.24 149.331 101.443 149.481 102.39 153.271C103.636 158.259 110.521 154.303 110.808 157.568C111.095 160.834 116.658 162.146 117.9 157.004Z" fill="white"/>
<path id="Vector_64" d="M117.275 155.304C117.607 151.054 124.678 152.31 122.31 149.369C119.943 146.427 125.443 145.485 123.013 142.658C120.584 139.831 115.874 142.796 117.332 139.439C118.79 136.083 114.74 133.215 111.813 135.115C108.887 137.015 112.05 140.734 108.431 140.71C104.455 140.677 103.283 143.827 104.923 146.313C106.563 148.8 103.135 149.138 103.39 152.465C103.802 158.188 111.286 152.249 111.135 156.451C111.014 159.228 116.844 160.779 117.275 155.304Z" fill="#1F263E"/>
<path id="Vector_65" opacity="0.4" d="M117.034 154.49C117.198 150.859 123.262 151.732 121.145 149.301C119.028 146.871 123.699 145.909 121.555 143.562C119.412 141.214 115.48 143.874 116.624 140.979C117.769 138.084 114.241 135.744 111.813 137.434C109.384 139.125 112.178 142.216 109.087 142.297C105.695 142.382 104.787 145.104 106.251 147.168C107.715 149.232 104.822 149.648 105.113 152.452C105.627 157.323 111.843 152.056 111.826 155.638C111.806 158.013 116.821 159.175 117.034 154.49Z" fill="white"/>
</g>
<path id="Vector_66" opacity="0.4" d="M117.9 157.004C118.649 153.883 126.443 152.95 123.627 149.482C120.81 146.013 126.526 146.08 124.656 142.096C122.787 138.111 118.219 142.673 118.579 138.381C118.94 134.088 114.72 131.604 111.275 133.841C107.829 136.078 111.722 139.826 107.452 139.793C102.755 139.759 101.373 143.474 103.307 146.402C105.24 149.331 101.443 149.481 102.39 153.271C103.636 158.259 110.521 154.303 110.808 157.568C111.095 160.834 116.658 162.146 117.9 157.004Z" fill="white"/>
<g id="Group_15">
<path id="Vector_67" d="M124.681 165.291C127.034 163.108 134.039 166.651 133.617 162.203C133.196 157.755 137.915 160.979 138.568 156.626C139.221 152.274 132.89 153.539 135.569 150.166C138.248 146.793 136.113 142.386 132.005 142.338C127.898 142.291 129.061 147.568 125.524 145.174C121.634 142.542 118.425 144.868 118.411 148.377C118.397 151.886 115.153 149.907 113.841 153.587C112.113 158.429 120.036 158.952 118.465 161.829C116.894 164.706 120.798 168.881 124.681 165.291Z" fill="#1F263E"/>
<path id="Vector_68" opacity="0.4" d="M124.681 165.291C127.034 163.108 134.039 166.651 133.617 162.203C133.196 157.755 137.915 160.979 138.568 156.626C139.221 152.274 132.89 153.539 135.569 150.166C138.248 146.793 136.113 142.386 132.005 142.338C127.898 142.291 129.061 147.568 125.524 145.174C121.634 142.542 118.425 144.868 118.411 148.377C118.397 151.886 115.153 149.907 113.841 153.587C112.113 158.429 120.036 158.952 118.465 161.829C116.894 164.706 120.798 168.881 124.681 165.291Z" fill="white"/>
<path id="Vector_69" d="M125.103 163.528C127.735 160.176 132.924 165.14 132.584 161.379C132.244 157.619 137.344 159.883 136.888 156.184C136.433 152.484 130.87 152.341 133.944 150.355C137.018 148.37 135.236 143.738 131.747 143.698C128.258 143.657 128.83 148.506 125.83 146.479C122.539 144.248 119.819 146.221 119.805 149.199C119.791 152.178 116.752 150.56 115.119 153.47C112.29 158.462 121.811 157.666 119.356 161.08C117.717 163.324 121.709 167.847 125.103 163.528Z" fill="#1F263E"/>
<path id="Vector_70" opacity="0.4" d="M125.355 162.718C127.504 159.787 132.067 163.874 131.652 160.678C131.237 157.481 135.658 159.27 135.175 156.128C134.692 152.986 129.945 153.02 132.502 151.245C135.059 149.47 133.42 145.566 130.462 145.628C127.504 145.689 128.116 149.81 125.497 148.164C122.627 146.355 120.363 148.117 120.438 150.647C120.512 153.176 117.874 151.918 116.561 154.414C114.29 158.753 122.383 157.815 120.383 160.786C119.05 162.752 122.58 166.499 125.355 162.718Z" fill="white"/>
</g>
<path id="Vector_71" opacity="0.4" d="M124.681 165.291C127.034 163.108 134.039 166.651 133.617 162.203C133.196 157.755 137.915 160.979 138.568 156.626C139.221 152.274 132.89 153.539 135.569 150.166C138.248 146.793 136.113 142.386 132.005 142.338C127.898 142.291 129.061 147.568 125.524 145.174C121.634 142.542 118.425 144.868 118.411 148.377C118.397 151.886 115.153 149.907 113.841 153.587C112.113 158.429 120.036 158.952 118.465 161.829C116.894 164.706 120.798 168.881 124.681 165.291Z" fill="white"/>
<g id="Group_16">
<path id="Vector_72" d="M79.9123 159.316C75.866 156.273 74.7397 151.233 74.2101 147.176C76.6546 147.851 78.3082 148.381 80.5556 149.556C82.8028 150.732 88.7532 156.565 85.7411 163.823L79.9123 159.316Z" fill="#1F263E"/>
<g id="Group_17" opacity="0.3">
<path id="Vector_73" d="M79.9123 159.316C75.866 156.273 74.7397 151.233 74.2101 147.176C76.6546 147.851 78.3082 148.381 80.5556 149.556C82.8028 150.732 88.7532 156.565 85.7411 163.823L79.9123 159.316Z" fill="#1F263E"/>
</g>
<path id="Vector_74" d="M85.8758 163.559C85.8826 163.559 85.8894 163.559 85.8962 163.557C85.9433 163.546 85.9719 163.498 85.9603 163.452C84.8765 159.003 81.454 154.626 78.5938 151.31C78.5625 151.273 78.5079 151.269 78.4705 151.301C78.4343 151.332 78.4302 151.387 78.4616 151.424C81.3095 154.725 84.7156 159.08 85.7913 163.493C85.8008 163.533 85.8363 163.559 85.8758 163.559Z" fill="#263238"/>
</g>
<g id="Group_18">
<path id="Vector_75" d="M82.4437 155.953C82.5384 155.239 82.9795 153.881 83.3791 153.33C83.7787 152.779 84.9123 152.105 85.5694 151.791C86.1792 151.495 87.4402 151.063 88.1862 151.057H89.3702C90.1161 151.057 91.611 151.453 92.3806 151.732C93.2094 152.028 94.8878 152.788 95.6041 153.36C96.3204 153.931 97.1966 155.227 97.6998 155.95C98.2031 156.672 99.091 157.992 99.3397 158.75C99.5933 159.664 99.6687 160.619 99.5617 161.562C99.4196 162.305 99.0437 163.598 98.6263 164.185C98.07 164.866 97.3913 165.437 96.6253 165.869C95.7044 166.281 94.7188 166.531 93.7126 166.606H92.5286C91.7471 166.606 90.1605 166.224 89.3702 165.934C88.3513 165.561 87.382 165.063 86.4841 164.454C85.6056 163.67 84.8047 162.804 84.0924 161.867C83.4428 160.959 82.9274 159.962 82.562 158.907C82.365 157.935 82.325 156.937 82.4437 155.953Z" fill="#1F263E"/>
<path id="Vector_76" opacity="0.3" d="M89.3641 151.045C88.6152 151.045 87.3572 151.489 86.7444 151.779C86.1317 152.069 84.9684 152.75 84.554 153.318C84.1396 153.887 83.7163 155.228 83.6186 155.941C83.5023 156.928 83.5423 157.927 83.737 158.901C84.1047 159.956 84.621 160.952 85.2703 161.861C85.9808 162.799 86.7808 163.665 87.6591 164.448C88.5583 165.057 89.5285 165.554 90.5481 165.928C91.3532 166.224 92.9161 166.603 93.7065 166.6C94.7127 166.525 95.6983 166.276 96.6192 165.863C97.3852 165.431 98.0639 164.86 98.6202 164.179C99.0376 163.587 99.4135 162.299 99.5556 161.556C99.6626 160.613 99.5872 159.659 99.3336 158.744C99.0849 157.986 98.1821 156.643 97.6937 155.944C97.2053 155.245 96.3025 153.916 95.598 153.354C94.8935 152.791 93.2033 152.022 92.3745 151.726C91.6049 151.433 90.11 151.036 89.3641 151.045Z" fill="white"/>
<path id="Vector_77" opacity="0.5" d="M89.5153 151.58C88.8197 151.58 87.6446 151.995 87.0762 152.264C86.5079 152.533 85.4275 153.17 85.0368 153.697C84.646 154.223 84.2583 155.473 84.1665 156.139C84.0575 157.057 84.0944 157.987 84.276 158.894C84.6199 159.872 85.1002 160.796 85.7028 161.638C86.3637 162.512 87.1093 163.318 87.9287 164.045C88.7646 164.615 89.6673 165.08 90.6165 165.43C91.5649 165.766 92.553 165.976 93.5559 166.055C94.493 165.987 95.4109 165.755 96.2672 165.368C96.9808 164.967 97.6133 164.436 98.1321 163.802C98.5198 163.258 98.8692 162.05 99.0024 161.36C99.101 160.482 99.0297 159.592 98.7922 158.741C98.5642 158.039 97.7206 156.787 97.2677 156.139C96.8149 155.49 95.9712 154.25 95.317 153.726C94.6629 153.202 93.0881 152.486 92.3185 152.211C91.6021 151.953 90.208 151.574 89.5153 151.58Z" fill="white"/>
<path id="Vector_78" d="M95.8378 161.985C95.8378 161.985 93.0287 160.046 92.7742 159.131C92.4782 158.107 94.4022 155.875 94.4022 155.875C94.7543 156.277 95.0797 156.703 95.3761 157.148C95.7468 157.649 96.0624 158.189 96.3174 158.758C96.4647 159.284 96.5089 159.834 96.4476 160.377C96.3539 160.907 96.1718 161.417 95.9089 161.887C95.8873 161.921 95.8636 161.954 95.8378 161.985Z" fill="#1F263E"/>
<path id="Vector_79" d="M91.3386 158.11C90.2907 158.11 87.3425 155.508 87.3425 155.508C87.3707 155.457 87.4024 155.407 87.4373 155.36C87.7956 154.985 88.224 154.683 88.6982 154.472C89.173 154.247 89.6824 154.104 90.2049 154.049C90.7968 154.102 91.379 154.234 91.9365 154.44C92.5908 154.675 93.214 154.989 93.7925 155.375L93.8635 155.437C93.8635 155.437 92.3894 158.098 91.3386 158.11Z" fill="#1F263E"/>
<path id="Vector_80" d="M91.9039 160.139C92.8127 160.139 95.3909 162.344 95.3909 162.344C95.1272 162.608 94.8284 162.834 94.5029 163.016C93.9731 163.254 93.4064 163.398 92.8275 163.442C92.2065 163.391 91.5947 163.261 91.0071 163.054C90.5416 162.878 90.0921 162.662 89.6631 162.409C89.6631 162.409 90.9952 160.151 91.9039 160.139Z" fill="#1F263E"/>
<path id="Vector_81" d="M86.6855 157.166C86.7562 156.75 86.8796 156.345 87.0525 155.961C87.0525 155.961 90.1813 158.134 90.4773 159.155C90.7348 160.07 89.018 162.062 89.018 162.062C88.5115 161.615 88.0505 161.119 87.6416 160.582C87.2651 160.062 86.9659 159.491 86.7536 158.885C86.6396 158.319 86.6166 157.739 86.6855 157.166Z" fill="#1F263E"/>
<g id="Group_19" opacity="0.3">
<path id="Vector_82" d="M95.8378 161.985C95.8378 161.985 93.0287 160.046 92.7742 159.131C92.4782 158.107 94.4022 155.875 94.4022 155.875C94.7543 156.277 95.0797 156.703 95.3761 157.148C95.7468 157.649 96.0624 158.189 96.3174 158.758C96.4647 159.284 96.5089 159.834 96.4476 160.377C96.3539 160.907 96.1718 161.417 95.9089 161.887C95.8873 161.921 95.8636 161.954 95.8378 161.985Z" fill="white"/>
<path id="Vector_83" d="M91.3386 158.11C90.2907 158.11 87.3425 155.508 87.3425 155.508C87.3707 155.457 87.4024 155.407 87.4373 155.36C87.7956 154.985 88.224 154.683 88.6982 154.472C89.173 154.247 89.6824 154.104 90.2049 154.049C90.7968 154.102 91.379 154.234 91.9365 154.44C92.5908 154.675 93.214 154.989 93.7925 155.375L93.8635 155.437C93.8635 155.437 92.3894 158.098 91.3386 158.11Z" fill="white"/>
<path id="Vector_84" d="M91.9039 160.137C92.8127 160.137 95.3909 162.342 95.3909 162.342C95.1272 162.606 94.8284 162.832 94.5029 163.014C93.9731 163.252 93.4064 163.396 92.8275 163.44C92.2065 163.39 91.5947 163.259 91.0071 163.052C90.5416 162.876 90.0921 162.66 89.6631 162.407C89.6631 162.407 90.9952 160.149 91.9039 160.137Z" fill="white"/>
<path id="Vector_85" d="M86.6852 157.166C86.756 156.75 86.8793 156.345 87.0523 155.961C87.0523 155.961 90.1811 158.134 90.4771 159.155C90.7346 160.07 89.0178 162.062 89.0178 162.062C88.5113 161.615 88.0502 161.119 87.6413 160.582C87.2648 160.062 86.9657 159.491 86.7533 158.885C86.6394 158.319 86.6164 157.739 86.6852 157.166Z" fill="white"/>
</g>
<g id="Group_20" opacity="0.5">
<path id="Vector_86" d="M95.2902 159.479C95.6484 159.553 95.7875 159.419 95.7787 159.212C95.7698 159.005 95.6158 158.813 95.2577 158.736C94.8995 158.659 94.6183 158.768 94.6272 158.972C94.636 159.177 94.9173 159.405 95.2902 159.479Z" fill="white"/>
<path id="Vector_87" d="M95.0238 160.771C95.3553 160.925 95.53 160.842 95.5773 160.664C95.6247 160.487 95.5241 160.283 95.1925 160.129C94.861 159.975 94.5532 159.996 94.5058 160.173C94.4584 160.351 94.6893 160.608 95.0238 160.771Z" fill="white"/>
<path id="Vector_88" d="M94.8313 157.858C95.08 157.784 95.1125 157.624 95.0237 157.461C94.9296 157.275 94.7093 157.19 94.5146 157.266C94.263 157.337 94.1327 157.529 94.2186 157.692C94.3657 157.874 94.6127 157.941 94.8313 157.858Z" fill="white"/>
<path id="Vector_89" d="M89.8496 156.014C89.6513 155.771 89.4678 155.736 89.3376 155.816C89.2074 155.896 89.1866 156.058 89.382 156.304C89.5773 156.55 89.8437 156.68 89.974 156.6C90.1042 156.52 90.045 156.26 89.8496 156.014Z" fill="white"/>
<path id="Vector_90" d="M92.2709 156.246C92.319 156.044 92.2065 155.838 92.0104 155.769C91.8358 155.701 91.6789 155.754 91.6374 156.009C91.5793 156.239 91.6793 156.48 91.8831 156.601C92.0578 156.654 92.2295 156.5 92.2709 156.246Z" fill="white"/>
<path id="Vector_91" d="M91.3652 157.097C91.2645 156.802 91.0692 156.665 90.8827 156.674C90.6962 156.683 90.5867 156.819 90.6814 157.13C90.7762 157.441 91.0129 157.684 91.1994 157.675C91.3859 157.666 91.454 157.408 91.3652 157.097Z" fill="white"/>
<path id="Vector_92" d="M93.8813 159.722C94.1773 159.787 94.2898 159.68 94.2868 159.514C94.2839 159.349 94.1625 159.186 93.8695 159.118C93.5764 159.05 93.3426 159.132 93.3485 159.298C93.3544 159.464 93.5912 159.647 93.8813 159.722Z" fill="white"/>
<path id="Vector_93" d="M92.6322 162.648C92.7714 162.92 92.9578 162.997 93.1147 162.958C93.2716 162.92 93.3397 162.775 93.2035 162.502C93.0673 162.23 92.8246 162.041 92.6677 162.079C92.5109 162.118 92.4961 162.384 92.6322 162.648Z" fill="white"/>
<path id="Vector_94" d="M93.8487 162.26C94.0529 162.503 94.2394 162.538 94.3666 162.453C94.494 162.367 94.5176 162.204 94.3134 161.958C94.1092 161.712 93.8427 161.582 93.7213 161.662C93.6 161.742 93.6474 162.014 93.8487 162.26Z" fill="white"/>
<path id="Vector_95" d="M92.4101 161.419C92.6291 161.653 92.8126 161.674 92.9311 161.579C93.0495 161.484 93.0583 161.313 92.8422 161.079C92.6262 160.845 92.3509 160.729 92.2325 160.824C92.1141 160.919 92.194 161.2 92.4101 161.419Z" fill="white"/>
<path id="Vector_96" d="M87.9848 157.628C87.6888 157.533 87.5645 157.628 87.5468 157.785C87.529 157.941 87.6385 158.116 87.9286 158.211C88.2187 158.306 88.4674 158.255 88.4851 158.092C88.5029 157.93 88.2779 157.722 87.9848 157.628Z" fill="white"/>
<path id="Vector_97" d="M89.3317 158.855C89.0505 158.855 88.9706 158.992 89.015 159.151C89.0801 159.358 89.2823 159.489 89.4975 159.465C89.7787 159.465 89.9711 159.329 89.9267 159.169C89.8823 159.009 89.6159 158.858 89.3317 158.855Z" fill="white"/>
<path id="Vector_98" d="M87.8604 159.168C87.5644 159.168 87.4993 159.304 87.5437 159.464C87.6077 159.67 87.8088 159.802 88.0232 159.778C88.3192 159.778 88.4998 159.639 88.4525 159.482C88.4051 159.325 88.1416 159.168 87.8604 159.168Z" fill="white"/>
<path id="Vector_99" d="M88.4615 160.254C88.3205 160.337 88.2732 160.518 88.3559 160.659C88.3702 160.684 88.3878 160.706 88.4082 160.725C88.529 160.884 88.7556 160.914 88.9143 160.794L88.9262 160.784C89.1049 160.692 89.1751 160.472 89.083 160.294C89.0759 160.28 89.0681 160.267 89.0594 160.254C88.887 160.108 88.6339 160.108 88.4615 160.254Z" fill="white"/>
<path id="Vector_100" d="M90.9182 161.402C90.8212 161.579 90.8853 161.8 91.0614 161.897L91.0722 161.903C91.2045 161.999 91.3896 161.969 91.4856 161.837C91.5006 161.816 91.5128 161.793 91.5221 161.77C91.6331 161.572 91.587 161.323 91.4125 161.177C91.2468 161.074 91.0248 161.175 90.9182 161.402Z" fill="white"/>
<path id="Vector_101" d="M90.5511 155.201C90.536 154.985 90.3713 154.811 90.1574 154.783C89.9828 154.783 89.8615 154.875 89.9147 155.153C89.968 155.431 90.1545 155.671 90.3321 155.683C90.5097 155.695 90.6044 155.482 90.5511 155.201Z" fill="white"/>
</g>
</g>
<g id="Group_21">
<path id="Vector_102" d="M97.8216 148.059C96.6059 143.144 98.9155 138.525 101.067 135.045C102.536 137.112 103.483 138.567 104.484 140.898C105.484 143.228 106.414 151.509 99.4948 155.235L97.8216 148.059Z" fill="#1F263E"/>
<path id="Vector_103" d="M99.821 155.135C99.8537 155.135 99.8851 155.116 99.9001 155.085C101.869 150.951 101.979 145.396 101.856 141.018C101.854 140.971 101.815 140.934 101.768 140.934H101.766C101.718 140.935 101.68 140.975 101.681 141.024C101.805 145.381 101.696 150.909 99.7419 155.01C99.7215 155.054 99.7399 155.106 99.7835 155.127C99.7958 155.132 99.8081 155.135 99.821 155.135Z" fill="#263238"/>
</g>
<g id="Group_22">
<path id="Vector_104" d="M108.602 161.205C110.397 159.72 111.349 157.278 111.035 154.97C110.72 152.662 109.15 150.564 107.023 149.613C105.869 149.097 104.556 148.889 103.552 148.121C102.343 147.197 101.762 145.593 100.477 144.779C98.8167 143.729 96.2785 144.623 95.6432 146.482C95.1374 147.961 95.7374 149.562 95.8776 151.12C96.0429 152.955 95.5585 154.814 95.8161 156.64C96.1135 158.748 97.4347 161.174 99.1768 162.399C104.027 165.807 107.275 161.854 108.602 161.205Z" fill="#263238"/>
<g id="Group_23" opacity="0.6">
<path id="Vector_105" d="M108.602 161.205C110.397 159.72 111.349 157.278 111.035 154.97C110.72 152.662 109.15 150.564 107.023 149.613C105.869 149.097 104.556 148.889 103.552 148.121C102.343 147.197 101.762 145.593 100.477 144.779C98.8167 143.729 96.2785 144.623 95.6432 146.482C95.1374 147.961 95.7374 149.562 95.8776 151.12C96.0429 152.955 95.5585 154.814 95.8161 156.64C96.1135 158.748 97.4347 161.174 99.1768 162.399C104.027 165.807 107.275 161.854 108.602 161.205Z" fill="white"/>
</g>
<path id="Vector_106" opacity="0.3" d="M99.4112 158.719C100.708 161.075 103.669 161.933 106.024 160.636C108.379 159.339 109.237 156.378 107.941 154.023C106.644 151.668 103.683 150.81 101.328 152.106C98.9725 153.403 98.1145 156.364 99.4112 158.719Z" fill="#1F263E"/>
</g>
<path id="Vector_107" opacity="0.3" d="M108.595 158.76C108.595 158.76 103.096 158.977 101.418 153.891C99.7392 148.805 103.93 145.641 103.93 145.641C103.93 145.641 105.481 146.317 105.56 146.462C105.639 146.607 108.595 158.76 108.595 158.76Z" fill="#1F263E"/>
<g id="Group_24">
<path id="Vector_108" d="M120.948 153.679C124.727 150.31 125.43 145.194 125.62 141.107C123.24 141.984 121.637 142.649 119.495 144.007C117.353 145.365 111.909 151.673 115.514 158.656L120.948 153.679Z" fill="#1F263E"/>
<g id="Group_25" opacity="0.3">
<path id="Vector_109" d="M120.948 153.679C124.727 150.31 125.43 145.194 125.62 141.107C123.24 141.984 121.637 142.649 119.495 144.007C117.353 145.365 111.909 151.673 115.514 158.656L120.948 153.679Z" fill="#1F263E"/>
</g>
<path id="Vector_110" d="M115.35 158.404C115.392 158.404 115.43 158.373 115.436 158.33C116.141 153.843 119.173 149.22 121.737 145.693C121.765 145.655 121.756 145.6 121.717 145.571C121.681 145.543 121.625 145.551 121.595 145.591C119.021 149.133 115.975 153.779 115.264 158.303C115.257 158.351 115.289 158.395 115.337 158.403C115.341 158.404 115.346 158.404 115.35 158.404Z" fill="#263238"/>
</g>
<g id="Group_26">
<path id="Vector_111" d="M112.027 157.942C114.316 157.507 116.327 155.828 117.165 153.654C118.003 151.48 117.638 148.885 116.234 147.027C115.472 146.017 114.423 145.202 113.913 144.045C113.3 142.652 113.565 140.967 112.831 139.634C111.884 137.914 109.229 137.473 107.776 138.794C106.619 139.847 106.373 141.538 105.745 142.97C105.004 144.658 103.683 146.053 103.028 147.776C102.272 149.767 102.259 152.529 103.195 154.442C105.799 159.767 110.551 157.87 112.027 157.942Z" fill="#263238"/>
<g id="Group_27" opacity="0.6">
<path id="Vector_112" d="M112.027 157.942C114.316 157.507 116.327 155.828 117.165 153.654C118.003 151.48 117.638 148.885 116.234 147.027C115.472 146.017 114.423 145.202 113.913 144.045C113.3 142.652 113.565 140.967 112.831 139.634C111.884 137.914 109.229 137.473 107.776 138.794C106.619 139.847 106.373 141.538 105.745 142.97C105.004 144.658 103.683 146.053 103.028 147.776C102.272 149.767 102.259 152.529 103.195 154.442C105.799 159.767 110.551 157.87 112.027 157.942Z" fill="white"/>
</g>
<path id="Vector_113" opacity="0.3" d="M110.043 156.202C107.354 156.202 105.174 154.022 105.174 151.333C105.174 148.644 107.354 146.465 110.043 146.465C112.732 146.465 114.911 148.644 114.911 151.333C114.911 154.022 112.732 156.202 110.043 156.202Z" fill="#1F263E"/>
</g>
<g id="Group_28">
<path id="Vector_114" d="M107.942 162.01C104.163 158.641 103.46 153.524 103.269 149.438C105.649 150.314 107.253 150.979 109.395 152.337C111.536 153.696 116.981 160.003 113.376 166.986L107.942 162.01Z" fill="#1F263E"/>
<path id="Vector_115" d="M113.539 166.734C113.543 166.734 113.548 166.734 113.553 166.733C113.6 166.725 113.632 166.681 113.625 166.633C112.916 162.111 109.869 157.464 107.294 153.921C107.265 153.881 107.21 153.874 107.172 153.901C107.134 153.93 107.125 153.984 107.153 154.023C109.716 157.55 112.749 162.175 113.453 166.661C113.459 166.704 113.497 166.734 113.539 166.734Z" fill="#263238"/>
</g>
<g id="Group_29">
<path id="Vector_116" d="M93.9361 165.824C90.1569 162.455 89.4537 157.339 89.2633 153.252C91.6432 154.128 93.247 154.794 95.3888 156.152C97.5306 157.51 102.975 163.818 99.3699 170.8L93.9361 165.824Z" fill="#1F263E"/>
<path id="Vector_117" d="M99.5334 170.549C99.5375 170.549 99.5423 170.549 99.547 170.547C99.5947 170.54 99.6268 170.495 99.6193 170.448C98.9097 165.924 95.8627 161.278 93.2882 157.735C93.2589 157.695 93.2037 157.689 93.1662 157.715C93.1273 157.744 93.1185 157.798 93.1464 157.837C95.7101 161.364 98.7434 165.988 99.4475 170.475C99.4536 170.518 99.4911 170.549 99.5334 170.549Z" fill="#263238"/>
</g>
<g id="Group_30">
<path id="Vector_118" d="M127.225 157.124C127.064 152.064 130.288 148.029 133.12 145.076C134.124 147.405 134.746 149.026 135.237 151.514C135.728 154.002 134.906 162.294 127.361 164.491L127.225 157.124Z" fill="#1F263E"/>
<path id="Vector_119" d="M127.719 164.462C127.745 164.462 127.771 164.451 127.788 164.428C130.579 160.798 131.848 155.388 132.642 151.081C132.651 151.034 132.62 150.988 132.572 150.979C132.526 150.973 132.479 151.002 132.47 151.05C131.68 155.337 130.417 160.721 127.65 164.322C127.62 164.36 127.628 164.415 127.666 164.444C127.682 164.456 127.701 164.462 127.719 164.462Z" fill="#263238"/>
</g>
<g id="Group_31">
<path id="Vector_120" d="M112.769 154.777C112.863 154.063 113.304 152.705 113.704 152.154C114.104 151.604 115.237 150.929 115.894 150.615C116.504 150.319 117.765 149.887 118.511 149.881H119.695C120.441 149.881 121.936 150.278 122.706 150.556C123.534 150.852 125.213 151.613 125.929 152.184C126.645 152.755 127.522 154.052 128.025 154.774C128.528 155.496 129.416 156.816 129.665 157.574C129.918 158.489 129.994 159.443 129.887 160.386C129.745 161.129 129.369 162.423 128.951 163.009C128.395 163.69 127.716 164.261 126.95 164.693C126.029 165.105 125.044 165.355 124.038 165.43H122.854C122.072 165.43 120.485 165.048 119.695 164.758C118.676 164.385 117.707 163.888 116.809 163.278C115.931 162.495 115.13 161.628 114.417 160.691C113.768 159.783 113.252 158.786 112.887 157.731C112.69 156.759 112.65 155.762 112.769 154.777Z" fill="#1F263E"/>
<path id="Vector_121" opacity="0.3" d="M119.689 149.869C118.94 149.869 117.682 150.313 117.069 150.603C116.457 150.893 115.293 151.574 114.879 152.143C114.465 152.711 114.041 154.052 113.944 154.765C113.827 155.752 113.867 156.751 114.062 157.725C114.43 158.78 114.946 159.777 115.595 160.685C116.306 161.623 117.106 162.49 117.984 163.272C118.883 163.881 119.853 164.378 120.873 164.752C121.678 165.048 123.241 165.427 124.032 165.424C125.038 165.349 126.023 165.1 126.944 164.687C127.71 164.255 128.389 163.684 128.945 163.003C129.363 162.411 129.739 161.123 129.881 160.38C129.988 159.438 129.912 158.483 129.659 157.568C129.41 156.811 128.507 155.467 128.019 154.768C127.53 154.07 126.627 152.741 125.923 152.178C125.218 151.616 123.528 150.846 122.699 150.55C121.93 150.257 120.435 149.86 119.689 149.869Z" fill="white"/>
<path id="Vector_122" opacity="0.5" d="M119.84 150.404C119.145 150.404 117.97 150.819 117.401 151.088C116.833 151.357 115.752 151.994 115.362 152.521C114.971 153.048 114.583 154.297 114.491 154.963C114.382 155.881 114.419 156.812 114.601 157.719C114.945 158.696 115.425 159.62 116.028 160.463C116.689 161.336 117.434 162.142 118.254 162.869C119.09 163.439 119.992 163.904 120.941 164.254C121.89 164.59 122.878 164.8 123.881 164.879C124.818 164.811 125.736 164.579 126.592 164.192C127.306 163.791 127.938 163.26 128.457 162.626C128.845 162.082 129.194 160.874 129.327 160.184C129.426 159.306 129.355 158.416 129.117 157.565C128.889 156.863 128.046 155.611 127.593 154.963C127.14 154.315 126.296 153.074 125.642 152.55C124.988 152.026 123.413 151.31 122.644 151.035C121.927 150.777 120.533 150.398 119.84 150.404Z" fill="white"/>
<path id="Vector_123" d="M126.163 160.809C126.163 160.809 123.354 158.87 123.099 157.955C122.803 156.931 124.727 154.699 124.727 154.699C125.08 155.102 125.405 155.527 125.701 155.972C126.072 156.473 126.388 157.013 126.643 157.582C126.79 158.109 126.834 158.658 126.773 159.201C126.679 159.731 126.497 160.242 126.234 160.711C126.213 160.745 126.189 160.778 126.163 160.809Z" fill="#1F263E"/>
<path id="Vector_124" d="M121.664 156.934C120.616 156.934 117.668 154.332 117.668 154.332C117.696 154.281 117.727 154.231 117.762 154.184C118.121 153.809 118.549 153.507 119.023 153.296C119.498 153.071 120.008 152.928 120.53 152.873C121.122 152.927 121.704 153.058 122.262 153.264C122.916 153.499 123.539 153.813 124.118 154.199L124.189 154.261C124.189 154.261 122.715 156.922 121.664 156.934Z" fill="#1F263E"/>
<path id="Vector_125" d="M122.229 158.963C123.138 158.963 125.716 161.168 125.716 161.168C125.452 161.432 125.154 161.658 124.828 161.84C124.298 162.078 123.732 162.222 123.153 162.266C122.532 162.216 121.92 162.085 121.332 161.879C120.867 161.702 120.417 161.486 119.988 161.233C119.988 161.233 121.32 158.975 122.229 158.963Z" fill="#1F263E"/>
<path id="Vector_126" d="M117.01 155.99C117.081 155.574 117.205 155.17 117.377 154.785C117.377 154.785 120.506 156.958 120.802 157.979C121.06 158.894 119.343 160.886 119.343 160.886C118.837 160.439 118.375 159.943 117.967 159.406C117.59 158.886 117.291 158.315 117.079 157.71C116.965 157.144 116.942 156.563 117.01 155.99Z" fill="#1F263E"/>
<g id="Group_32" opacity="0.3">
<path id="Vector_127" d="M126.163 160.809C126.163 160.809 123.354 158.87 123.099 157.955C122.803 156.931 124.727 154.699 124.727 154.699C125.08 155.102 125.405 155.527 125.701 155.972C126.072 156.473 126.388 157.013 126.643 157.582C126.79 158.109 126.834 158.658 126.773 159.201C126.679 159.731 126.497 160.242 126.234 160.711C126.213 160.745 126.189 160.778 126.163 160.809Z" fill="white"/>
<path id="Vector_128" d="M121.664 156.934C120.616 156.934 117.668 154.332 117.668 154.332C117.696 154.281 117.727 154.231 117.762 154.184C118.121 153.809 118.549 153.507 119.023 153.296C119.498 153.071 120.008 152.928 120.53 152.873C121.122 152.927 121.704 153.058 122.262 153.264C122.916 153.499 123.539 153.813 124.118 154.199L124.189 154.261C124.189 154.261 122.715 156.922 121.664 156.934Z" fill="white"/>
<path id="Vector_129" d="M122.229 158.961C123.138 158.961 125.716 161.166 125.716 161.166C125.452 161.43 125.154 161.656 124.828 161.838C124.298 162.076 123.732 162.22 123.153 162.264C122.532 162.214 121.92 162.083 121.332 161.877C120.867 161.7 120.417 161.484 119.988 161.231C119.988 161.231 121.32 158.973 122.229 158.961Z" fill="white"/>
<path id="Vector_130" d="M117.01 155.99C117.081 155.574 117.205 155.17 117.377 154.785C117.377 154.785 120.506 156.958 120.802 157.979C121.06 158.894 119.343 160.886 119.343 160.886C118.837 160.439 118.375 159.943 117.967 159.406C117.59 158.886 117.291 158.315 117.079 157.71C116.965 157.144 116.942 156.563 117.01 155.99Z" fill="white"/>
</g>
<g id="Group_33" opacity="0.5">
<path id="Vector_131" d="M125.615 158.303C125.973 158.377 126.113 158.244 126.104 158.036C126.095 157.829 125.941 157.637 125.583 157.56C125.224 157.483 124.943 157.592 124.952 157.797C124.961 158.001 125.242 158.229 125.615 158.303Z" fill="white"/>
<path id="Vector_132" d="M125.349 159.595C125.68 159.749 125.855 159.666 125.902 159.489C125.95 159.311 125.849 159.107 125.517 158.953C125.186 158.799 124.878 158.82 124.831 158.997C124.783 159.175 125.014 159.432 125.349 159.595Z" fill="white"/>
<path id="Vector_133" d="M125.157 156.682C125.405 156.608 125.438 156.448 125.349 156.286C125.255 156.099 125.035 156.014 124.84 156.09C124.588 156.161 124.458 156.354 124.544 156.516C124.691 156.698 124.938 156.765 125.157 156.682Z" fill="white"/>
<path id="Vector_134" d="M120.175 154.838C119.976 154.595 119.793 154.56 119.662 154.64C119.532 154.72 119.512 154.883 119.707 155.128C119.902 155.374 120.169 155.504 120.299 155.424C120.429 155.344 120.37 155.084 120.175 154.838Z" fill="white"/>
<path id="Vector_135" d="M122.596 155.07C122.644 154.868 122.532 154.662 122.335 154.594C122.161 154.525 122.004 154.579 121.962 154.833C121.904 155.063 122.004 155.304 122.208 155.425C122.383 155.479 122.554 155.325 122.596 155.07Z" fill="white"/>
<path id="Vector_136" d="M121.69 155.922C121.59 155.626 121.394 155.49 121.208 155.498C121.021 155.507 120.912 155.643 121.006 155.954C121.101 156.265 121.338 156.508 121.524 156.499C121.711 156.49 121.779 156.233 121.69 155.922Z" fill="white"/>
<path id="Vector_137" d="M124.206 158.546C124.502 158.611 124.615 158.504 124.612 158.338C124.609 158.173 124.487 158.01 124.194 157.942C123.901 157.874 123.668 157.957 123.673 158.122C123.679 158.288 123.916 158.472 124.206 158.546Z" fill="white"/>
<path id="Vector_138" d="M122.957 161.472C123.096 161.744 123.283 161.821 123.44 161.783C123.597 161.744 123.665 161.599 123.528 161.327C123.392 161.054 123.15 160.865 122.993 160.903C122.836 160.942 122.821 161.208 122.957 161.472Z" fill="white"/>
<path id="Vector_139" d="M124.174 161.084C124.378 161.327 124.564 161.363 124.692 161.277C124.819 161.191 124.843 161.028 124.638 160.782C124.434 160.537 124.168 160.406 124.046 160.486C123.925 160.566 123.972 160.839 124.174 161.084Z" fill="white"/>
<path id="Vector_140" d="M122.735 160.243C122.954 160.477 123.138 160.498 123.256 160.403C123.374 160.308 123.383 160.137 123.167 159.903C122.951 159.669 122.676 159.554 122.557 159.648C122.439 159.743 122.519 160.024 122.735 160.243Z" fill="white"/>
<path id="Vector_141" d="M118.31 156.452C118.014 156.357 117.889 156.452 117.872 156.609C117.854 156.766 117.963 156.94 118.254 157.035C118.544 157.13 118.792 157.079 118.81 156.917C118.828 156.754 118.603 156.547 118.31 156.452Z" fill="white"/>
<path id="Vector_142" d="M119.656 157.68C119.375 157.68 119.295 157.816 119.34 157.976C119.405 158.182 119.607 158.314 119.822 158.289C120.103 158.289 120.296 158.153 120.251 157.993C120.207 157.834 119.941 157.683 119.656 157.68Z" fill="white"/>
<path id="Vector_143" d="M118.185 157.992C117.889 157.992 117.824 158.128 117.869 158.288C117.933 158.494 118.134 158.626 118.348 158.602C118.644 158.602 118.825 158.463 118.777 158.306C118.73 158.149 118.467 157.992 118.185 157.992Z" fill="white"/>
<path id="Vector_144" d="M118.786 159.077C118.645 159.159 118.598 159.341 118.681 159.482C118.695 159.506 118.713 159.528 118.733 159.547C118.854 159.706 119.081 159.737 119.239 159.616L119.251 159.606C119.43 159.514 119.5 159.295 119.408 159.116C119.401 159.102 119.393 159.089 119.384 159.077C119.212 158.93 118.959 158.93 118.786 159.077Z" fill="white"/>
<path id="Vector_145" d="M121.243 160.227C121.146 160.403 121.21 160.624 121.386 160.721L121.397 160.727C121.529 160.823 121.715 160.793 121.811 160.661C121.826 160.64 121.838 160.618 121.847 160.594C121.958 160.396 121.912 160.147 121.738 160.002C121.572 159.898 121.35 159.999 121.243 160.227Z" fill="white"/>
<path id="Vector_146" d="M120.876 154.025C120.861 153.81 120.696 153.635 120.482 153.607C120.308 153.607 120.186 153.699 120.24 153.977C120.293 154.256 120.479 154.495 120.657 154.507C120.835 154.519 120.929 154.306 120.876 154.025Z" fill="white"/>
</g>
</g>
<g id="Group_34">
<path id="Vector_147" d="M102.924 162.865C103.018 162.151 103.459 160.793 103.859 160.242C104.259 159.691 105.392 159.017 106.049 158.703C106.659 158.407 107.92 157.975 108.666 157.969H109.85C110.596 157.969 112.091 158.365 112.861 158.644C113.689 158.94 115.368 159.7 116.084 160.272C116.8 160.843 117.677 162.139 118.18 162.862C118.683 163.584 119.571 164.904 119.82 165.662C120.073 166.576 120.149 167.531 120.042 168.474C119.9 169.217 119.524 170.51 119.106 171.097C118.55 171.778 117.871 172.349 117.105 172.781C116.184 173.193 115.199 173.443 114.193 173.518H113.009C112.227 173.518 110.641 173.136 109.85 172.846C108.831 172.473 107.862 171.976 106.964 171.366C106.086 170.582 105.285 169.716 104.572 168.779C103.923 167.871 103.407 166.874 103.042 165.819C102.845 164.847 102.805 163.849 102.924 162.865Z" fill="#1F263E"/>
<path id="Vector_148" opacity="0.3" d="M109.844 157.957C109.095 157.957 107.837 158.401 107.224 158.691C106.612 158.981 105.448 159.662 105.034 160.23C104.62 160.799 104.196 162.14 104.099 162.853C103.982 163.84 104.022 164.839 104.217 165.813C104.585 166.868 105.101 167.865 105.75 168.773C106.461 169.711 107.261 170.577 108.139 171.36C109.038 171.969 110.009 172.466 111.028 172.84C111.833 173.136 113.396 173.515 114.186 173.512C115.193 173.437 116.178 173.188 117.099 172.775C117.865 172.343 118.544 171.772 119.1 171.091C119.518 170.499 119.893 169.211 120.036 168.468C120.143 167.525 120.067 166.571 119.814 165.656C119.565 164.898 118.662 163.555 118.174 162.856C117.685 162.157 116.782 160.828 116.078 160.266C115.373 159.704 113.683 158.934 112.854 158.638C112.085 158.345 110.59 157.948 109.844 157.957Z" fill="white"/>
<path id="Vector_149" opacity="0.5" d="M109.995 158.492C109.3 158.492 108.125 158.907 107.556 159.176C106.988 159.445 105.907 160.082 105.517 160.609C105.126 161.136 104.738 162.385 104.646 163.051C104.537 163.969 104.574 164.899 104.756 165.807C105.1 166.784 105.58 167.708 106.183 168.551C106.844 169.424 107.589 170.23 108.409 170.957C109.245 171.527 110.147 171.992 111.096 172.342C112.045 172.678 113.033 172.888 114.036 172.967C114.973 172.899 115.891 172.667 116.747 172.28C117.461 171.879 118.093 171.348 118.612 170.714C119 170.17 119.349 168.962 119.482 168.272C119.581 167.394 119.51 166.504 119.272 165.653C119.044 164.951 118.201 163.699 117.748 163.051C117.295 162.402 116.451 161.162 115.797 160.638C115.143 160.114 113.568 159.398 112.798 159.123C112.082 158.865 110.688 158.486 109.995 158.492Z" fill="white"/>
<path id="Vector_150" d="M116.318 168.897C116.318 168.897 113.509 166.958 113.254 166.043C112.958 165.019 114.882 162.787 114.882 162.787C115.234 163.19 115.56 163.615 115.856 164.06C116.227 164.561 116.542 165.101 116.797 165.67C116.945 166.196 116.989 166.746 116.928 167.289C116.834 167.819 116.652 168.33 116.389 168.799C116.367 168.833 116.344 168.866 116.318 168.897Z" fill="#1F263E"/>
<path id="Vector_151" d="M111.819 165.022C110.771 165.022 107.823 162.42 107.823 162.42C107.851 162.369 107.882 162.319 107.917 162.272C108.276 161.897 108.704 161.595 109.178 161.384C109.653 161.159 110.162 161.016 110.685 160.961C111.277 161.014 111.859 161.146 112.417 161.352C113.071 161.587 113.694 161.901 114.272 162.287L114.344 162.349C114.344 162.349 112.869 165.01 111.819 165.022Z" fill="#1F263E"/>
<path id="Vector_152" d="M112.384 167.051C113.293 167.051 115.871 169.256 115.871 169.256C115.607 169.52 115.308 169.746 114.983 169.928C114.453 170.166 113.886 170.31 113.307 170.354C112.687 170.304 112.075 170.173 111.487 169.966C111.022 169.79 110.572 169.574 110.143 169.321C110.143 169.321 111.475 167.063 112.384 167.051Z" fill="#1F263E"/>
<path id="Vector_153" d="M107.166 164.078C107.236 163.662 107.36 163.257 107.533 162.873C107.533 162.873 110.661 165.046 110.957 166.067C111.215 166.982 109.498 168.974 109.498 168.974C108.992 168.527 108.531 168.031 108.122 167.494C107.745 166.974 107.446 166.403 107.234 165.798C107.12 165.232 107.097 164.651 107.166 164.078Z" fill="#1F263E"/>
<g id="Group_35" opacity="0.3">
<path id="Vector_154" d="M116.318 168.897C116.318 168.897 113.509 166.958 113.254 166.043C112.958 165.019 114.882 162.787 114.882 162.787C115.234 163.19 115.56 163.615 115.856 164.06C116.227 164.561 116.542 165.101 116.797 165.67C116.945 166.196 116.989 166.746 116.928 167.289C116.834 167.819 116.652 168.33 116.389 168.799C116.367 168.833 116.344 168.866 116.318 168.897Z" fill="white"/>
<path id="Vector_155" d="M111.819 165.022C110.771 165.022 107.823 162.42 107.823 162.42C107.851 162.369 107.882 162.319 107.917 162.272C108.276 161.897 108.704 161.595 109.178 161.384C109.653 161.159 110.162 161.016 110.685 160.961C111.277 161.014 111.859 161.146 112.417 161.352C113.071 161.587 113.694 161.901 114.272 162.287L114.344 162.349C114.344 162.349 112.869 165.01 111.819 165.022Z" fill="white"/>
<path id="Vector_156" d="M112.384 167.049C113.293 167.049 115.871 169.254 115.871 169.254C115.607 169.518 115.308 169.744 114.983 169.926C114.453 170.164 113.886 170.308 113.307 170.352C112.687 170.302 112.075 170.171 111.487 169.965C111.022 169.788 110.572 169.572 110.143 169.319C110.143 169.319 111.475 167.061 112.384 167.049Z" fill="white"/>
<path id="Vector_157" d="M107.165 164.078C107.236 163.662 107.359 163.257 107.532 162.873C107.532 162.873 110.661 165.046 110.957 166.067C111.215 166.982 109.498 168.974 109.498 168.974C108.991 168.527 108.53 168.031 108.121 167.494C107.745 166.974 107.446 166.403 107.233 165.798C107.119 165.232 107.096 164.651 107.165 164.078Z" fill="white"/>
</g>
<g id="Group_36" opacity="0.5">
<path id="Vector_158" d="M115.77 166.391C116.128 166.465 116.267 166.331 116.259 166.124C116.25 165.917 116.096 165.725 115.738 165.648C115.38 165.571 115.098 165.68 115.107 165.885C115.116 166.089 115.397 166.317 115.77 166.391Z" fill="white"/>
<path id="Vector_159" d="M115.504 167.683C115.835 167.837 116.01 167.754 116.057 167.577C116.105 167.399 116.004 167.195 115.673 167.041C115.341 166.887 115.033 166.908 114.986 167.085C114.938 167.263 115.169 167.52 115.504 167.683Z" fill="white"/>
<path id="Vector_160" d="M115.311 164.77C115.56 164.696 115.593 164.536 115.504 164.373C115.41 164.187 115.189 164.102 114.995 164.178C114.743 164.249 114.613 164.441 114.699 164.604C114.846 164.786 115.093 164.853 115.311 164.77Z" fill="white"/>
<path id="Vector_161" d="M110.33 162.926C110.131 162.683 109.948 162.648 109.818 162.728C109.687 162.808 109.667 162.971 109.862 163.216C110.057 163.462 110.324 163.592 110.454 163.512C110.584 163.432 110.525 163.172 110.33 162.926Z" fill="white"/>
<path id="Vector_162" d="M112.751 163.158C112.799 162.956 112.686 162.75 112.49 162.681C112.316 162.613 112.159 162.667 112.117 162.921C112.059 163.151 112.159 163.392 112.363 163.513C112.538 163.566 112.709 163.412 112.751 163.158Z" fill="white"/>
<path id="Vector_163" d="M111.845 164.01C111.745 163.714 111.549 163.577 111.363 163.586C111.176 163.595 111.067 163.731 111.161 164.042C111.256 164.353 111.493 164.596 111.679 164.587C111.866 164.578 111.934 164.321 111.845 164.01Z" fill="white"/>
<path id="Vector_164" d="M114.361 166.634C114.657 166.699 114.77 166.592 114.767 166.426C114.764 166.261 114.642 166.098 114.349 166.03C114.056 165.962 113.823 166.045 113.828 166.21C113.834 166.376 114.071 166.56 114.361 166.634Z" fill="white"/>
<path id="Vector_165" d="M113.112 169.56C113.251 169.832 113.438 169.909 113.595 169.87C113.752 169.832 113.82 169.687 113.683 169.415C113.547 169.142 113.305 168.953 113.148 168.991C112.991 169.03 112.976 169.296 113.112 169.56Z" fill="white"/>
<path id="Vector_166" d="M114.329 169.172C114.533 169.415 114.719 169.45 114.847 169.365C114.974 169.279 114.998 169.116 114.793 168.87C114.589 168.625 114.323 168.494 114.201 168.574C114.08 168.654 114.127 168.927 114.329 169.172Z" fill="white"/>
<path id="Vector_167" d="M112.89 168.331C113.109 168.565 113.293 168.586 113.411 168.491C113.529 168.396 113.538 168.225 113.322 167.991C113.106 167.757 112.831 167.642 112.712 167.736C112.594 167.831 112.674 168.112 112.89 168.331Z" fill="white"/>
<path id="Vector_168" d="M108.465 164.54C108.169 164.445 108.045 164.54 108.027 164.697C108.009 164.854 108.118 165.028 108.409 165.123C108.699 165.218 108.947 165.167 108.965 165.004C108.983 164.842 108.758 164.634 108.465 164.54Z" fill="white"/>
<path id="Vector_169" d="M109.812 165.768C109.53 165.768 109.45 165.904 109.495 166.064C109.56 166.27 109.762 166.401 109.977 166.377C110.258 166.377 110.451 166.241 110.406 166.081C110.362 165.921 110.096 165.771 109.812 165.768Z" fill="white"/>
<path id="Vector_170" d="M108.34 166.08C108.044 166.08 107.979 166.216 108.024 166.376C108.088 166.582 108.289 166.714 108.503 166.69C108.799 166.69 108.98 166.551 108.932 166.394C108.885 166.237 108.622 166.08 108.34 166.08Z" fill="white"/>
<path id="Vector_171" d="M108.941 167.165C108.8 167.247 108.753 167.429 108.836 167.57C108.85 167.594 108.868 167.616 108.888 167.635C109.009 167.794 109.236 167.825 109.394 167.704L109.406 167.694C109.585 167.602 109.655 167.383 109.563 167.204C109.556 167.19 109.548 167.177 109.539 167.165C109.367 167.018 109.114 167.018 108.941 167.165Z" fill="white"/>
<path id="Vector_172" d="M111.398 168.315C111.301 168.491 111.365 168.712 111.541 168.809L111.552 168.815C111.685 168.911 111.87 168.881 111.966 168.749C111.981 168.728 111.993 168.706 112.002 168.682C112.113 168.484 112.067 168.235 111.893 168.09C111.727 167.986 111.505 168.087 111.398 168.315Z" fill="white"/>
<path id="Vector_173" d="M111.031 162.113C111.016 161.898 110.851 161.723 110.637 161.695C110.463 161.695 110.341 161.787 110.395 162.065C110.448 162.344 110.634 162.583 110.812 162.595C110.99 162.607 111.084 162.394 111.031 162.113Z" fill="white"/>
</g>
</g>
<path id="Vector_174" d="M107.149 161.703C124.446 161.703 138.526 159.612 139.106 157H139.133C139.133 173.425 124.813 186.739 107.149 186.739C89.4845 186.739 75.1648 173.425 75.1648 157H75.1925C75.7719 159.612 89.8525 161.703 107.149 161.703Z" fill="#1F263E"/>
<path id="Vector_175" opacity="0.3" d="M107.149 161.703C124.446 161.703 138.526 159.612 139.106 157H139.133C139.133 173.425 124.813 186.739 107.149 186.739C89.4845 186.739 75.1648 173.425 75.1648 157H75.1925C75.7719 159.612 89.8525 161.703 107.149 161.703Z" fill="#1F263E"/>
</g>
<path id="Vector_176" d="M117.518 183.1C117.518 183.1 107.522 168.731 103.601 168.48C99.679 168.229 101.968 173.349 101.968 173.349C101.968 173.349 99.1033 167.87 96.6128 168.772C93.6237 169.855 96.0464 175.208 96.0464 175.208C96.0464 175.208 93.5239 170.83 91.3624 171.781C89.1204 172.768 91.4253 179.004 91.4253 179.004C91.4253 179.004 89.0661 176.258 87.9374 177.769C86.8091 179.281 91.4762 192.569 95.4132 195.521C99.3416 198.466 114.203 193.34 118.841 189.705C122.019 187.215 127.133 183.871 126.981 179.459L117.235 182.842L117.518 183.1Z" fill="#FDAD6D"/>
<path id="Vector_177" opacity="0.2" d="M101.697 173.469C101.701 173.478 101.704 173.485 101.709 173.492L107.161 182.804C107.235 182.928 107.41 182.966 107.553 182.886C107.697 182.806 107.753 182.635 107.681 182.516L102.229 173.204C102.155 173.08 101.979 173.043 101.836 173.122C101.701 173.197 101.642 173.348 101.697 173.469Z" fill="#1F263E"/>
<path id="Vector_178" opacity="0.2" d="M95.8999 175.609L95.9027 175.615L100.428 184.975C100.492 185.106 100.662 185.154 100.81 185.084C100.959 185.013 101.012 184.881 100.965 184.72L96.4397 175.359C96.3763 175.229 96.2054 175.181 96.0575 175.251C95.9107 175.321 95.842 175.48 95.8999 175.609Z" fill="#1F263E"/>
<path id="Vector_179" opacity="0.2" d="M91.299 179.449L94.4626 186.5C94.5222 186.632 94.6918 186.684 94.8412 186.617C94.9905 186.55 95.0647 186.388 95.0055 186.257L91.8416 179.205C91.7825 179.073 91.6126 179.021 91.4629 179.088C91.3133 179.155 91.2395 179.316 91.299 179.449Z" fill="#1F263E"/>
</g>
</g>
</g>
</g>
</svg>
