<svg width="16" height="19" viewBox="0 0 16 19" fill="none" xmlns="http://www.w3.org/2000/svg">
<g id="Group 48102109">
<path id="Notif Icon" d="M6.5 19C5.60304 18.9957 4.87575 18.2831 4.86688 17.4H8.11687C8.11859 17.6139 8.07717 17.826 7.995 18.024C7.78185 18.5056 7.34647 18.8569 6.825 18.968H6.82094H6.80875H6.79413H6.78681C6.69241 18.9874 6.5964 18.9981 6.5 19ZM13 16.6H0V15L1.625 14.2V9.8C1.5822 8.67129 1.84107 7.5513 2.37575 6.552C2.90797 5.62521 3.81769 4.9671 4.875 4.744V3H8.125V4.744C10.2204 5.2352 11.375 7.0304 11.375 9.8V14.2L13 15V16.6Z" fill="#2F313F"/>
<circle id="Notif Sign" cx="11" cy="5" r="3.6" fill="#EC5252" stroke="white" stroke-width="1.2"/>
</g>
</svg>
